<svg width="24" height="24" viewBox="0 0 24 24" fill="none" xmlns="http://www.w3.org/2000/svg">
<g clip-path="url(#clip0_33_103)">
<rect width="24" height="24" rx="5" fill="#E5F9E0"/>
<path d="M6.1543 20.1C5.42096 20.1 4.80763 19.7933 4.3143 19.18C3.82096 18.5667 3.5743 17.7267 3.5743 16.66C3.5743 16.1133 3.6343 15.5 3.7543 14.82C3.8743 14.1267 4.0143 13.4267 4.1743 12.72C4.3343 12.0133 4.4743 11.3533 4.5943 10.74C4.7143 10.1133 4.7743 9.59333 4.7743 9.18C4.7743 8.88667 4.7343 8.66 4.6543 8.5C4.5743 8.32667 4.42763 8.24 4.2143 8.24C4.0543 8.24 3.86763 8.31333 3.6543 8.46C3.44096 8.60667 3.28096 8.89333 3.1743 9.32L2.9743 9.24C2.9743 8.09333 3.2343 7.18667 3.7543 6.52C4.28763 5.85333 5.00096 5.52 5.8943 5.52C6.7343 5.52 7.3143 5.79333 7.6343 6.34C7.96763 6.88667 8.1343 7.57333 8.1343 8.4C8.1343 9.01333 8.06763 9.66667 7.9343 10.36C7.8143 11.0533 7.6743 11.7467 7.5143 12.44C7.3543 13.12 7.20763 13.7533 7.0743 14.34C6.9543 14.9267 6.8943 15.4133 6.8943 15.8C6.8943 16.3733 7.04096 16.66 7.3343 16.66C7.50763 16.66 7.74096 16.54 8.0343 16.3C8.32763 16.0467 8.6343 15.7067 8.9543 15.28C9.28763 14.84 9.60763 14.3467 9.9143 13.8C10.221 13.24 10.481 12.6533 10.6943 12.04C10.6676 11.7467 10.6476 11.4667 10.6343 11.2C10.621 10.92 10.6143 10.6733 10.6143 10.46C10.6143 9.39333 10.7143 8.53333 10.9143 7.88C11.1276 7.22667 11.3943 6.74667 11.7143 6.44C12.0343 6.13333 12.361 5.98 12.6943 5.98C13.161 5.98 13.581 6.24 13.9543 6.76C14.3276 7.26667 14.5143 7.96 14.5143 8.84C14.5143 9.38667 14.4143 10 14.2143 10.68C14.0143 11.3467 13.681 12.06 13.2143 12.82C13.1743 13.9667 13.301 14.8933 13.5943 15.6C13.8876 16.3067 14.2543 16.66 14.6943 16.66C14.9743 16.66 15.2743 16.52 15.5943 16.24C15.9276 15.9467 16.2343 15.5467 16.5143 15.04C16.7943 14.52 17.021 13.92 17.1943 13.24C17.381 12.56 17.4743 11.8333 17.4743 11.06C17.4743 10.6067 17.441 10.1333 17.3743 9.64C17.321 9.14667 17.2476 8.67333 17.1543 8.22C17.0743 7.76667 16.9876 7.39333 16.8943 7.1C16.8943 6.87333 16.9876 6.64667 17.1743 6.42C17.3743 6.18 17.6276 5.98 17.9343 5.82C18.241 5.64667 18.5543 5.56 18.8743 5.56C19.1943 5.56 19.501 5.67333 19.7943 5.9C20.0876 6.12667 20.3276 6.52667 20.5143 7.1C20.701 7.66 20.7943 8.46 20.7943 9.5C20.7943 10.9533 20.6076 12.32 20.2343 13.6C19.861 14.8667 19.3543 15.9867 18.7143 16.96C18.0876 17.9333 17.3943 18.7 16.6343 19.26C15.8743 19.8067 15.101 20.08 14.3143 20.08C13.621 20.08 13.0476 19.8667 12.5943 19.44C12.141 19.0133 11.7876 18.44 11.5343 17.72C11.281 17 11.101 16.2 10.9943 15.32C10.5143 16.4667 9.9943 17.3933 9.4343 18.1C8.8743 18.7933 8.3143 19.3 7.7543 19.62C7.1943 19.94 6.66096 20.1 6.1543 20.1Z" fill="#2F9C95"/>
</g>
<defs>
<clipPath id="clip0_33_103">
<rect width="24" height="24" rx="5" fill="white"/>
</clipPath>
</defs>
</svg>
